<svg id="Capa_1" enable-background="new 0 0 512 512" height="512" viewBox="0 0 512 512" width="512" xmlns="http://www.w3.org/2000/svg"><g><path d="m90.726 66.073v165.237c0 9.934 8.053 17.987 17.987 17.987h294.573c9.934 0 17.987-8.053 17.987-17.987v-165.237c.001-36.491-29.581-66.073-66.072-66.073-11.23 0-22.118 3.862-30.838 10.938l-3.625 2.941c-1.1.893-2.658.95-3.821.141l-7.559-5.257c-8.202-5.705-17.953-8.763-27.945-8.763h-124.614c-36.491 0-66.073 29.582-66.073 66.073z" fill="#365e7d"/><g><path d="m355.201 0c-5.582 0-11.078.956-16.267 2.784 27.231 8.161 47.08 33.401 47.08 63.288v165.238c0 9.934-8.053 17.987-17.987 17.987h35.26c9.934 0 17.987-8.053 17.987-17.987v-165.237c0-36.491-29.582-66.073-66.073-66.073z" fill="#2b4d66"/></g><path d="m303.152 347.718h-19.368-55.567-19.368c-38.542 0-69.786 31.244-69.786 69.786v85.608c0 4.909 3.979 8.888 8.888 8.888h216.099c4.909 0 8.888-3.979 8.888-8.888v-85.608c0-38.542-31.244-69.786-69.786-69.786z" fill="#365e7d"/><path d="m303.152 347.718h-34.004c38.542 0 69.786 31.244 69.786 69.786v85.608c0 4.909-3.979 8.888-8.888 8.888h34.004c4.909 0 8.888-3.979 8.888-8.888v-85.608c0-38.542-31.244-69.786-69.786-69.786z" fill="#2b4d66"/><path d="m275.45 296.259-37.314-2.195c-9.527 0-9.945 44.635-9.945 44.635v27.325c0 15.344 12.439 27.784 27.784 27.784 15.344 0 27.784-12.439 27.784-27.784v-27.324c-.001 0 1.218-42.441-8.309-42.441z" fill="#eaac9d"/><path d="m256 347.718c-74.046 0-134.073-60.026-134.073-134.072v-81.091c0-1.947 1.583-3.518 3.53-3.522 62.052-.114 116.894-9.002 165.813-40.613 1.462-.944 3.415-.643 4.462.747 22.091 29.327 52.22 37.443 90.826 39.677 1.969.114 3.514 1.731 3.514 3.703v81.1c0 74.044-60.026 134.071-134.072 134.071z" fill="#ffcbbe"/><path d="m386.559 128.843c-11.36-.657-21.98-1.831-31.883-3.898v88.7c0 68.046-50.694 124.246-116.374 132.908 5.792.764 11.698 1.164 17.698 1.164 74.046 0 134.072-60.026 134.072-134.072v-81.1c0-1.971-1.545-3.588-3.513-3.702z" fill="#eaac9d"/><path d="m297.566 192.912v148.227c11.414-3.719 22.153-8.926 31.992-15.395v-132.832c-10.664-3.02-21.328-3.02-31.992 0z" fill="#80b4fb"/><path d="m253.725 308.583c-8.518 0-15.423-6.905-15.423-15.423v-11.844c0-8.518 6.905-15.423 15.423-15.423 8.518 0 15.423 6.905 15.423 15.423v11.844c0 8.518-6.905 15.423-15.423 15.423z" fill="#da4a54"/><path d="m182.442 192.912v132.832c9.838 6.469 20.578 11.676 31.992 15.395v-148.227c-10.664-3.02-21.328-3.02-31.992 0z" fill="#80b4fb"/><g><path d="m223.193 203.789c-1.036 0-2.088-.209-3.098-.652-14.572-6.386-28.74-6.386-43.315 0-3.908 1.716-8.465-.066-10.178-3.975-1.713-3.908.066-8.465 3.975-10.178 18.487-8.104 37.234-8.103 55.721 0 3.908 1.713 5.688 6.27 3.975 10.178-1.27 2.899-4.105 4.627-7.08 4.627z" fill="#2b4d66"/></g><g><path d="m338.317 203.789c-1.036 0-2.088-.209-3.098-.652-14.573-6.386-28.74-6.386-43.314 0-3.906 1.716-8.465-.066-10.178-3.975-1.713-3.908.066-8.465 3.975-10.178 18.487-8.103 37.233-8.103 55.72 0 3.908 1.713 5.688 6.27 3.975 10.178-1.271 2.899-4.106 4.627-7.08 4.627z" fill="#2b4d66"/></g></g></svg>